<svg width="400" height="207" viewBox="0 0 400 207" fill="none" xmlns="http://www.w3.org/2000/svg">
<g clip-path="url(#clip0)">
<path fill-rule="evenodd" clip-rule="evenodd" d="M255.364 15.7499C256.276 16.6614 256.654 17.9775 256.367 19.2341C251.496 40.5159 240.501 62.8882 225.921 81.9878L222.588 102.792C222.463 103.571 222.096 104.29 221.538 104.848L198.552 127.834C197.403 128.983 195.643 129.26 194.197 128.52C192.75 127.779 191.946 126.19 192.206 124.586L194.839 108.344C193.517 109.073 192.191 109.764 190.862 110.417C189.424 111.125 187.694 110.838 186.561 109.704L161.409 84.5532C160.276 83.4196 159.989 81.6902 160.697 80.2515C161.375 78.8731 162.093 77.4976 162.852 76.1258L146.414 78.7937C144.81 79.0541 143.22 78.2501 142.48 76.8033C141.739 75.3565 142.016 73.5971 143.165 72.4478L166.152 49.4617C166.709 48.9042 167.428 48.5369 168.207 48.4119L189.357 45.0174C208.406 30.5243 230.684 19.5982 251.88 14.7472C253.136 14.4596 254.453 14.8384 255.364 15.7499ZM191.575 52.7743C192.103 52.3583 192.633 51.9452 193.167 51.5349C193.171 51.5313 193.176 51.5276 193.181 51.524C209.816 38.729 229.021 28.8254 247.52 23.5942C242.265 42.1757 232.296 61.4704 219.418 78.157C219.414 78.1614 219.411 78.1659 219.407 78.1704C219.203 78.4349 218.998 78.6987 218.792 78.9619C217.56 80.5391 216.302 82.0924 215.019 83.6187C209.466 89.1579 203.77 93.8193 198.019 97.6503C195.332 99.4402 192.634 101.049 189.932 102.481L168.633 81.1822C170.047 78.5154 171.632 75.8515 173.394 73.1993C177.238 67.4129 181.922 61.6818 187.495 56.0951C188.835 54.9689 190.196 53.8617 191.575 52.7743ZM178.836 54.2932L170.591 55.6165L156.667 69.5403L168.076 67.6886C171.194 63.1491 174.777 58.6727 178.836 54.2932ZM216.662 92.4253C212.284 96.4696 207.809 100.039 203.272 103.143L201.457 114.334L215.383 100.409L216.662 92.4253ZM224.279 46.9493C223.215 45.8858 221.491 45.8858 220.427 46.9493C219.364 48.0129 219.364 49.7373 220.427 50.8009C221.491 51.8644 223.215 51.8644 224.279 50.8009C225.343 49.7373 225.343 48.0129 224.279 46.9493ZM215.13 41.6522C219.119 37.663 225.587 37.663 229.576 41.6522C233.565 45.6413 233.565 52.1089 229.576 56.098C225.587 60.0872 219.119 60.0872 215.13 56.098C211.141 52.1089 211.141 45.6413 215.13 41.6522ZM207.354 63.8744C206.29 62.8109 204.566 62.8109 203.502 63.8744C202.439 64.938 202.439 66.6624 203.502 67.726C204.566 68.7895 206.29 68.7895 207.354 67.726C208.417 66.6624 208.417 64.938 207.354 63.8744ZM198.205 58.5773C202.194 54.5881 208.662 54.5881 212.651 58.5773C216.64 62.5664 216.64 69.034 212.651 73.0232C208.662 77.0123 202.194 77.0123 198.205 73.0232C194.216 69.034 194.216 62.5664 198.205 58.5773ZM190.429 80.7996C189.365 79.736 187.641 79.736 186.577 80.7996C185.514 81.8631 185.514 83.5875 186.577 84.6511C187.641 85.7147 189.365 85.7147 190.429 84.6511C191.492 83.5875 191.492 81.8631 190.429 80.7996ZM181.28 75.5024C185.269 71.5133 191.737 71.5132 195.726 75.5024C199.715 79.4915 199.715 85.9591 195.726 89.9483C191.737 93.9374 185.269 93.9374 181.28 89.9483C177.291 85.9591 177.291 79.4915 181.28 75.5024Z" fill="url(#paint0_linear)"/>
<path fill-rule="evenodd" clip-rule="evenodd" d="M161.647 88.768C163.11 90.2308 163.11 92.6024 161.647 94.0652L143.807 111.905C142.345 113.368 139.973 113.368 138.51 111.905C137.047 110.442 137.047 108.071 138.51 106.608L156.35 88.768C157.813 87.3052 160.185 87.3052 161.647 88.768ZM182.232 109.353C183.695 110.815 183.695 113.187 182.232 114.65L164.392 132.49C162.929 133.953 160.558 133.953 159.095 132.49C157.632 131.027 157.632 128.655 159.095 127.193L176.935 109.353C178.397 107.89 180.769 107.89 182.232 109.353ZM165.078 105.922C166.541 107.385 166.541 109.756 165.078 111.219L147.238 129.059C145.775 130.522 143.404 130.522 141.941 129.059C140.478 127.596 140.478 125.225 141.941 123.762L159.781 105.922C161.244 104.459 163.615 104.459 165.078 105.922Z" fill="#FF5C00"/>
<path d="M61.616 190.248C61.616 191.016 61.2747 191.72 60.592 192.36C59.9093 192.957 59.1627 193.256 58.352 193.256C57.584 193.256 57.0507 192.744 56.752 191.72C56.624 186.088 56.56 180.477 56.56 174.888L56.368 158.76C56.368 155.517 57.7973 153.299 60.656 152.104C62.96 151.037 65.6907 150.504 68.848 150.504C70.4693 150.504 72.1973 150.909 74.032 151.72C75.9093 152.488 77.5733 153.64 79.024 155.176C80.5173 156.669 81.264 158.312 81.264 160.104C81.264 161.853 80.4533 163.752 78.832 165.8C77.2107 167.805 75.2053 169.597 72.816 171.176C70.4267 172.712 68.1013 173.864 65.84 174.632C69.808 177.405 73.264 180.392 76.208 183.592C79.152 186.749 80.624 189.203 80.624 190.952C80.624 191.507 80.3467 192.04 79.792 192.552C79.2373 193.021 78.5547 193.256 77.744 193.256C76.976 193.256 76.3147 192.915 75.76 192.232C74.8213 189.971 73.0293 187.603 70.384 185.128C67.7813 182.611 64.7307 180.221 61.232 177.96L61.616 190.248ZM61.36 171.048C64.2187 170.92 67.4187 169.725 70.96 167.464C74.544 165.203 76.336 163.176 76.336 161.384C76.336 159.549 75.44 158.141 73.648 157.16C71.856 156.179 69.7227 155.688 67.248 155.688C64.816 155.688 62.8747 155.987 61.424 156.584C61.3813 158.76 61.36 163.581 61.36 171.048ZM102.647 150.44C105.633 150.44 108.172 151.4 110.263 153.32C114.359 156.989 116.407 162.792 116.407 170.728C116.407 178.621 114.145 184.829 109.623 189.352C107.276 191.613 104.567 192.851 101.495 193.064C97.4412 193.064 94.2838 191.677 92.0225 188.904C89.7612 186.131 88.1398 183.037 87.1585 179.624C86.2198 176.168 85.7505 172.84 85.7505 169.64C85.7505 164.179 87.0518 159.677 89.6545 156.136C92.3852 152.339 96.7158 150.44 102.647 150.44ZM102.199 155.752C96.4812 155.752 92.9185 158.461 91.5105 163.88C91.0838 165.331 90.8705 167.187 90.8705 169.448C90.8705 171.709 91.2972 174.333 92.1505 177.32C93.3025 181.331 95.0092 184.147 97.2705 185.768C98.5932 186.792 100.193 187.304 102.071 187.304C103.948 187.304 105.633 186.472 107.127 184.808C108.62 183.101 109.644 180.947 110.199 178.344C110.753 175.741 111.031 173.117 111.031 170.472C111.031 165.779 110.348 162.152 108.983 159.592C107.66 157.032 105.399 155.752 102.199 155.752ZM140.129 151.144C142.988 151.144 146.145 151.699 149.601 152.808C150.369 153.405 150.753 154.067 150.753 154.792C150.753 155.475 150.39 156.093 149.665 156.648C148.982 157.16 148.193 157.416 147.297 157.416C144.993 156.819 142.838 156.52 140.833 156.52C136.225 156.52 132.726 157.885 130.337 160.616C127.948 163.347 126.753 167.4 126.753 172.776C126.753 178.152 128.161 182.355 130.977 185.384C132.428 186.963 134.156 187.752 136.161 187.752C138.166 187.752 141.366 186.685 145.761 184.552C147.297 183.827 148.321 183.464 148.833 183.464C149.942 183.464 150.497 184.04 150.497 185.192C150.497 186.344 149.964 187.304 148.897 188.072C145.228 189.992 142.369 191.293 140.321 191.976C138.273 192.616 136.502 192.936 135.009 192.936C131.937 192.936 129.313 191.805 127.137 189.544C123.254 185.363 121.313 179.667 121.313 172.456C121.313 165.203 123.148 159.848 126.817 156.392C130.529 152.893 134.966 151.144 140.129 151.144ZM158.36 185.704C158.36 182.419 158.146 176.872 157.72 169.064C157.336 161.213 156.994 156.243 156.696 154.152C156.696 153.213 157.016 152.403 157.656 151.72C158.296 150.995 159.021 150.632 159.832 150.632C160.856 150.632 161.538 151.272 161.88 152.552C162.562 156.819 162.989 162.963 163.16 170.984C167 167.443 169.965 164.413 172.056 161.896C174.189 159.379 176.429 156.157 178.776 152.232C179.458 151.08 180.461 150.504 181.784 150.504C182.466 150.504 183.021 150.696 183.448 151.08C183.917 151.421 184.152 151.848 184.152 152.36C184.152 153.725 182.936 156.093 180.504 159.464C178.114 162.792 175.576 166.035 172.888 169.192C176.472 172.776 179.544 176.915 182.104 181.608C182.445 182.205 182.893 182.952 183.448 183.848C184.002 184.744 184.429 185.448 184.728 185.96C185.538 187.368 185.944 188.563 185.944 189.544C185.944 190.525 185.688 191.336 185.176 191.976C184.706 192.573 184.109 192.872 183.384 192.872C182.658 192.872 181.72 191.933 180.568 190.056C179.416 188.136 177.752 185.448 175.576 181.992C173.442 178.493 171.181 175.421 168.792 172.776C166.402 175.08 164.61 176.68 163.416 177.576C163.544 180.307 163.608 182.589 163.608 184.424C163.608 186.216 163.565 187.667 163.48 188.776C163.224 191.549 162.093 192.936 160.088 192.936C158.85 192.936 158.274 192.189 158.36 190.696V185.704ZM190.708 170.984C190.11 170.6 189.812 170.045 189.812 169.32C189.812 168.595 190.046 167.933 190.516 167.336C190.345 163.069 190.26 158.568 190.26 153.832C190.516 152.808 190.9 152.061 191.411 151.592C191.966 151.123 192.756 150.824 193.78 150.696C199.412 150.952 205.513 151.08 212.084 151.08C213.705 151.421 214.516 152.125 214.516 153.192C214.516 154.984 212.766 156.029 209.268 156.328C208.329 156.371 207.305 156.392 206.196 156.392H202.036C201.225 156.392 198.985 156.221 195.316 155.88C195.316 161.213 195.401 164.883 195.572 166.888C197.833 166.931 202.185 166.952 208.628 166.952C210.164 167.251 210.932 167.955 210.932 169.064C210.932 170.131 210.313 170.963 209.076 171.56C208.948 171.645 208.713 171.731 208.372 171.816L197.3 171.624C196.617 171.624 196.062 171.667 195.635 171.752L195.892 182.76C195.892 185.235 195.828 187.005 195.7 188.072L210.548 187.88C211.913 188.093 212.596 188.669 212.596 189.608C212.596 190.248 212.297 190.888 211.7 191.528C211.145 192.168 210.484 192.573 209.716 192.744L193.332 193C192.35 193 191.668 192.829 191.284 192.488C190.9 192.104 190.708 191.485 190.708 190.632C190.878 189.437 190.964 187.517 190.964 184.872V180.392L190.708 170.984ZM218.316 151.464L244.236 151.08C245.473 151.464 246.092 152.083 246.092 152.936C246.092 155.069 245.217 156.136 243.468 156.136C240.268 156.136 236.876 156.221 233.292 156.392C233.079 160.061 232.972 162.835 232.972 164.712C232.972 166.547 232.972 167.72 232.972 168.232L233.228 190.696C233.228 192.019 232.887 192.787 232.204 193C231.692 193.171 231.052 193.256 230.284 193.256C229.047 193.256 228.364 192.552 228.236 191.144C227.98 187.859 227.852 181.736 227.852 172.776C227.852 163.773 227.98 158.355 228.236 156.52C227.34 156.563 226.017 156.584 224.268 156.584C222.519 156.584 220.343 156.563 217.74 156.52C217.057 156.52 216.524 156.307 216.14 155.88C215.756 155.453 215.564 154.941 215.564 154.344C215.564 153.704 215.82 153.085 216.332 152.488C216.887 151.891 217.548 151.549 218.316 151.464ZM247.166 184.104L247.23 179.112L247.806 152.36C247.806 151.848 248.083 151.443 248.638 151.144C249.192 150.845 249.896 150.696 250.75 150.696C252.798 150.696 253.822 151.421 253.822 152.872C253.822 153.341 253.566 156.925 253.054 163.624C252.584 170.323 252.35 174.333 252.35 175.656C252.35 175.656 252.35 177.917 252.35 182.44C252.35 185.64 252.563 187.389 252.99 187.688C253.63 187.901 254.376 188.008 255.23 188.008L264.446 187.368C266.451 187.368 267.454 188.093 267.454 189.544C267.454 190.696 266.899 191.549 265.79 192.104C264.723 192.616 263.656 192.915 262.59 193C261.523 193.043 260.222 193.064 258.686 193.064C251.987 193.064 248.36 192.851 247.806 192.424C247.507 192.168 247.336 191.208 247.294 189.544C247.251 187.837 247.208 186.643 247.166 185.96C247.166 185.277 247.166 184.659 247.166 184.104ZM288.834 150.44C291.821 150.44 294.359 151.4 296.45 153.32C300.546 156.989 302.594 162.792 302.594 170.728C302.594 178.621 300.333 184.829 295.81 189.352C293.463 191.613 290.754 192.851 287.682 193.064C283.629 193.064 280.471 191.677 278.21 188.904C275.949 186.131 274.327 183.037 273.346 179.624C272.407 176.168 271.938 172.84 271.938 169.64C271.938 164.179 273.239 159.677 275.842 156.136C278.573 152.339 282.903 150.44 288.834 150.44ZM288.386 155.752C282.669 155.752 279.106 158.461 277.698 163.88C277.271 165.331 277.058 167.187 277.058 169.448C277.058 171.709 277.485 174.333 278.338 177.32C279.49 181.331 281.197 184.147 283.458 185.768C284.781 186.792 286.381 187.304 288.258 187.304C290.135 187.304 291.821 186.472 293.314 184.808C294.807 183.101 295.831 180.947 296.386 178.344C296.941 175.741 297.218 173.117 297.218 170.472C297.218 165.779 296.535 162.152 295.17 159.592C293.847 157.032 291.586 155.752 288.386 155.752ZM325.997 150.504C328.045 150.504 330.071 151.016 332.077 152.04C334.125 153.064 335.149 154.216 335.149 155.496C335.149 157.459 334.338 158.44 332.717 158.44C332.119 158.44 331.074 158.056 329.581 157.288C328.087 156.52 326.829 156.136 325.805 156.136C322.135 156.136 319.063 157.779 316.589 161.064C314.157 164.349 312.941 168.531 312.941 173.608C312.941 177.405 313.773 180.733 315.437 183.592C317.101 186.451 319.063 187.88 321.325 187.88C323.629 187.88 325.421 187.133 326.701 185.64C328.023 184.104 328.685 182.376 328.685 180.456C328.685 179.389 328.599 178.515 328.429 177.832C328.301 177.107 327.938 176.467 327.341 175.912C326.743 175.315 325.954 175.016 324.973 175.016C323.991 175.016 323.053 174.803 322.157 174.376C321.303 173.949 320.877 173.373 320.877 172.648C320.877 171.923 321.09 171.24 321.517 170.6C321.943 169.96 322.519 169.576 323.245 169.448C326.146 169.448 328.087 169.747 329.069 170.344C330.093 170.941 330.861 171.432 331.373 171.816C331.885 172.2 332.311 172.84 332.653 173.736C332.994 174.632 333.25 175.379 333.421 175.976C333.634 176.573 333.783 177.533 333.869 178.856C333.954 181.075 333.997 183.677 333.997 186.664C333.997 189.608 333.783 191.421 333.357 192.104C332.973 192.659 332.333 192.957 331.437 193C330.541 193 329.922 192.808 329.581 192.424C329.239 192.04 329.026 191.187 328.941 189.864C327.917 190.76 326.615 191.528 325.037 192.168C323.501 192.765 322.135 193.064 320.941 193.064C317.186 193.064 314.029 191.08 311.469 187.112C308.909 183.101 307.629 178.28 307.629 172.648C307.629 169.661 308.119 166.739 309.101 163.88C310.082 160.979 311.405 158.547 313.069 156.584C316.567 152.531 320.877 150.504 325.997 150.504Z" fill="#374151"/>
</g>
<defs>
<linearGradient id="paint0_linear" x1="172.265" y1="17.6287" x2="214.846" y2="143.344" gradientUnits="userSpaceOnUse">
<stop stop-color="#D326C2"/>
<stop offset="1" stop-color="#1F6BFF"/>
</linearGradient>
<clipPath id="clip0">
<rect width="400" height="207" fill="white"/>
</clipPath>
</defs>
</svg>
